<?xml version="1.0" encoding="UTF-8"?>
<svg xmlns="http://www.w3.org/2000/svg" xmlns:xlink="http://www.w3.org/1999/xlink" width="48px" height="48px" viewBox="0 0 48 48" version="1.1">
<g id="surface1">
<path style=" stroke:none;fill-rule:nonzero;fill:rgb(0%,0%,0%);fill-opacity:1;" d="M 0 24 L 0 48 L 48 48 L 48 0 L 0 0 Z M 11.691406 20.109375 C 11.929688 20.195312 12.21875 20.375 12.441406 20.582031 C 12.507812 20.644531 13.039062 21.125 13.617188 21.648438 C 14.195312 22.171875 14.765625 22.691406 14.890625 22.804688 C 15.011719 22.917969 15.441406 23.308594 15.84375 23.675781 L 16.578125 24.34375 L 16.59375 22.1875 L 16.605469 20.03125 L 18.855469 20.03125 L 18.847656 23.714844 C 18.832031 27.300781 18.828125 27.410156 18.734375 27.570312 C 18.554688 27.878906 18.410156 27.941406 17.9375 27.941406 C 17.230469 27.9375 17.40625 28.070312 14.425781 25.351562 L 12.515625 23.613281 L 12.5 25.761719 L 12.488281 27.917969 L 10.238281 27.917969 L 10.238281 24.371094 C 10.238281 20.707031 10.242188 20.65625 10.4375 20.371094 C 10.652344 20.0625 11.207031 19.949219 11.691406 20.109375 Z M 27.832031 20.167969 C 27.785156 20.242188 27.460938 20.707031 27.113281 21.199219 L 26.484375 22.089844 L 22.335938 22.089844 L 22.335938 22.921875 L 24.949219 22.933594 L 27.566406 22.945312 L 26.859375 23.9375 L 26.148438 24.929688 L 22.335938 24.929688 L 22.335938 25.914062 L 25.125 25.902344 C 26.664062 25.890625 27.917969 25.894531 27.917969 25.910156 C 27.914062 25.925781 27.601562 26.375 27.214844 26.914062 L 26.515625 27.894531 L 23.273438 27.910156 L 20.03125 27.917969 L 20.03125 20.03125 L 27.917969 20.03125 Z M 34.398438 20.105469 C 35.828125 20.355469 37.015625 21.238281 37.488281 22.414062 C 37.847656 23.289062 37.851562 24.503906 37.503906 25.371094 C 37.304688 25.859375 37.074219 26.203125 36.660156 26.621094 C 36.210938 27.074219 35.847656 27.332031 35.320312 27.550781 C 34.519531 27.890625 34.566406 27.882812 31.382812 27.902344 L 28.507812 27.921875 L 28.515625 25.460938 L 28.53125 22.996094 L 29.648438 22.980469 L 30.757812 22.972656 L 30.757812 24.410156 C 30.757812 25.601562 30.769531 25.855469 30.828125 25.875 C 30.945312 25.921875 33.160156 25.910156 33.640625 25.867188 C 34.429688 25.789062 35.042969 25.410156 35.347656 24.824219 C 35.457031 24.605469 35.480469 24.484375 35.5 24.097656 C 35.515625 23.707031 35.5 23.589844 35.414062 23.347656 C 35.203125 22.789062 34.746094 22.367188 34.148438 22.1875 C 33.851562 22.09375 33.6875 22.089844 31.191406 22.089844 C 28.914062 22.089844 28.550781 22.078125 28.570312 22.019531 C 28.585938 21.980469 28.835938 21.609375 29.125 21.199219 C 29.414062 20.785156 29.714844 20.355469 29.789062 20.238281 L 29.929688 20.03125 L 31.953125 20.03125 C 33.535156 20.03125 34.070312 20.046875 34.398438 20.105469 Z M 34.398438 20.105469 "/>
</g>
</svg>
