<?xml version="1.0" standalone="no"?>
<!DOCTYPE svg PUBLIC "-//W3C//DTD SVG 20010904//EN"
 "http://www.w3.org/TR/2001/REC-SVG-20010904/DTD/svg10.dtd">
<svg version="1.0" xmlns="http://www.w3.org/2000/svg"
 width="980.000000pt" height="980.000000pt" viewBox="0 0 980.000000 980.000000"
 preserveAspectRatio="xMidYMid meet">

<g transform="translate(0.000000,980.000000) scale(0.100000,-0.100000)"
fill="#000000" stroke="none">
<path d="M0 4900 l0 -4900 4900 0 4900 0 0 4900 0 4900 -4900 0 -4900 0 0
-4900z m2387 794 c49 -17 108 -54 153 -96 14 -13 122 -111 240 -218 118 -107
235 -213 260 -236 25 -23 113 -103 195 -178 l150 -136 3 440 2 440 230 0 230
0 -2 -752 c-3 -732 -4 -754 -23 -787 -37 -63 -66 -76 -163 -76 -144 1 -108
-26 -717 529 l-390 355 -3 -439 -2 -440 -230 0 -230 0 0 724 c0 748 1 759 41
817 44 63 157 86 256 53z m3295 -12 c-9 -15 -75 -110 -146 -210 l-129 -182
-424 0 -423 0 0 -85 0 -85 534 -2 534 -3 -144 -202 -145 -203 -389 0 -390 0 0
-101 0 -100 570 3 c314 2 570 1 570 -2 -1 -3 -65 -95 -144 -205 l-142 -200
-662 -3 -662 -2 0 805 0 805 805 0 805 0 -18 -28z m1341 13 c292 -51 534 -231
631 -471 73 -179 74 -427 3 -604 -41 -100 -88 -170 -172 -255 -92 -93 -166
-145 -274 -190 -163 -69 -154 -68 -804 -72 l-587 -4 2 503 3 503 228 3 227 2
0 -294 c0 -243 2 -295 14 -299 24 -9 476 -7 574 2 161 16 287 93 349 213 22
44 27 69 31 148 3 80 0 104 -18 153 -43 114 -136 200 -258 237 -61 19 -94 20
-604 20 -465 0 -539 2 -535 14 3 8 54 84 113 168 59 84 121 172 136 196 l29
42 413 0 c323 0 432 -3 499 -15z"/>
</g>
</svg>
